<svg width="333" height="78" viewBox="0 0 333 78" fill="none" xmlns="http://www.w3.org/2000/svg">
<path d="M16.396 20.914C18.3 20.914 19.798 20.396 20.89 19.36C22.01 18.324 22.57 16.896 22.57 15.076C22.57 12.5 21.912 10.4 20.596 8.776C19.308 7.124 17.418 6.298 14.926 6.298C13.022 6.298 11.286 6.844 9.718 7.936V33.556L16.228 35.362L15.388 37.042H0.52V35.74L4.468 32.632V7.096L0.1 5.668L0.94 3.988H5.812C8.528 3.988 11.202 3.904 13.834 3.736C15.794 3.624 17.236 3.568 18.16 3.568C20.12 3.568 21.856 3.988 23.368 4.828C24.908 5.64 26.098 6.774 26.938 8.23C27.778 9.686 28.198 11.296 28.198 13.06C28.198 15.02 27.484 16.868 26.056 18.604C24.628 20.34 22.808 21.698 20.596 22.678C18.384 23.658 16.214 24.092 14.086 23.98L12.112 22.552L12.952 20.872H16.354L16.396 20.914ZM44.6308 14.278C46.4788 14.278 48.1308 14.768 49.5868 15.748C51.0708 16.7 52.2188 18.002 53.0308 19.654C53.8708 21.306 54.2908 23.126 54.2908 25.114C54.2908 27.27 53.6328 29.3 52.3168 31.204C51.0008 33.08 49.3488 34.592 47.3608 35.74C45.4008 36.86 43.4968 37.42 41.6488 37.42C39.8008 37.42 38.1348 36.944 36.6508 35.992C35.1948 35.012 34.0468 33.696 33.2068 32.044C32.3948 30.392 31.9888 28.572 31.9888 26.584C31.9888 24.428 32.6468 22.412 33.9628 20.536C35.2788 18.632 36.9168 17.12 38.8768 16C40.8648 14.852 42.7828 14.278 44.6308 14.278ZM42.1948 17.806C39.0308 17.806 37.4488 20.06 37.4488 24.568C37.4488 27.228 38.0228 29.454 39.1708 31.246C40.3188 33.01 41.9568 33.892 44.0848 33.892C47.2488 33.892 48.8308 31.624 48.8308 27.088C48.8308 24.456 48.2568 22.258 47.1088 20.494C45.9608 18.702 44.3228 17.806 42.1948 17.806ZM73.0606 32.464C73.0606 31.68 72.6266 30.966 71.7586 30.322C70.8906 29.65 69.5606 28.852 67.7686 27.928C66.3126 27.172 65.1366 26.514 64.2406 25.954C63.3446 25.394 62.5746 24.75 61.9306 24.022C61.3146 23.266 61.0066 22.454 61.0066 21.586C61.0066 20.578 61.4266 19.5 62.2666 18.352C63.1066 17.204 64.1426 16.238 65.3746 15.454C66.6066 14.67 67.7546 14.278 68.8186 14.278C70.1066 14.278 71.5906 14.446 73.2706 14.782C74.9786 15.09 76.2106 15.44 76.9666 15.832V22.3H75.3706C74.4746 20.564 73.4386 19.22 72.2626 18.268C71.0866 17.288 69.8826 16.798 68.6506 16.798C67.7826 16.798 67.0826 17.036 66.5506 17.512C66.0186 17.96 65.7526 18.534 65.7526 19.234C65.7526 20.102 66.2006 20.886 67.0966 21.586C68.0206 22.258 69.4066 23.056 71.2546 23.98C72.6826 24.708 73.8306 25.338 74.6986 25.87C75.5666 26.402 76.2946 27.032 76.8826 27.76C77.4986 28.46 77.8066 29.244 77.8066 30.112C77.8066 31.148 77.3586 32.24 76.4626 33.388C75.5946 34.508 74.5166 35.46 73.2286 36.244C71.9686 37.028 70.8066 37.42 69.7426 37.42C68.3706 37.42 66.7326 37.266 64.8286 36.958C62.9526 36.622 61.6086 36.258 60.7966 35.866V29.398H62.3926C63.3726 31.134 64.5346 32.492 65.8786 33.472C67.2226 34.424 68.5806 34.9 69.9526 34.9C70.8766 34.9 71.6186 34.662 72.1786 34.186C72.7666 33.71 73.0606 33.136 73.0606 32.464ZM94.9675 37.084C94.3235 37.308 93.5395 37.42 92.6155 37.42C90.2915 37.42 88.5835 36.818 87.4915 35.614C86.4275 34.382 85.8955 32.492 85.8955 29.944V17.68H81.3595V15.958L89.3395 6.676H90.9355V15.958H98.4955V17.68H90.9355V30.448C90.9355 32.716 92.0275 33.85 94.2115 33.85C94.7995 33.85 95.3595 33.724 95.8915 33.472C96.4515 33.22 97.1375 32.772 97.9495 32.128L99.2095 33.724L94.9675 37.084ZM136.088 16L126.722 37H123.53L119.162 26.29L113.744 37H110.552L104 20.998L100.094 18.73V17.428L107.276 13.9L108.872 20.242L113.996 32.716L118.112 23.854L116.936 20.998L113.03 18.73V17.428L120.212 13.9L121.808 20.242L126.806 32.38L131.846 20.62L126.008 16.378L126.848 14.698H136.088V16ZM160.989 37H153.009V33.346L148.263 37.084C147.703 37.308 147.003 37.42 146.163 37.42C143.755 37.42 142.005 36.818 140.913 35.614C139.849 34.41 139.317 32.968 139.317 31.288C139.317 30.28 139.681 29.286 140.409 28.306C141.137 27.326 142.173 26.402 143.517 25.534H153.009V22.846C153.009 21.026 152.519 19.738 151.539 18.982C150.587 18.226 149.271 17.848 147.591 17.848C145.855 17.848 143.727 18.898 141.207 20.998L139.947 19.402L145.995 14.614C147.115 14.39 148.459 14.278 150.027 14.278C152.575 14.278 154.549 14.908 155.949 16.168C157.349 17.4 158.049 19.206 158.049 21.586V33.85L161.829 35.32L160.989 37ZM147.507 33.85C149.215 33.85 151.049 33.066 153.009 31.498V27.256H145.575C145.211 27.704 144.945 28.152 144.777 28.6C144.637 29.048 144.567 29.538 144.567 30.07C144.567 31.106 144.833 32.002 145.365 32.758C145.897 33.486 146.611 33.85 147.507 33.85ZM177.625 14.278C178.773 14.278 180.103 14.446 181.615 14.782C183.155 15.09 184.261 15.44 184.933 15.832V22.3H183.337C182.245 20.9 180.985 19.808 179.557 19.024C178.157 18.212 176.701 17.806 175.189 17.806C173.901 17.806 172.921 18.38 172.249 19.528C171.605 20.676 171.283 22.356 171.283 24.568C171.283 27.2 171.857 29.412 173.005 31.204C174.153 32.968 175.791 33.85 177.919 33.85C179.515 33.85 181.783 32.702 184.723 30.406L185.983 32.002L179.515 37.084C178.395 37.308 177.051 37.42 175.483 37.42C173.635 37.42 171.969 36.944 170.485 35.992C169.029 35.012 167.881 33.696 167.041 32.044C166.229 30.392 165.823 28.572 165.823 26.584C165.823 24.428 166.425 22.398 167.629 20.494C168.861 18.59 170.401 17.078 172.249 15.958C174.097 14.838 175.889 14.278 177.625 14.278ZM216.109 37H208.129V22.846C208.129 21.306 207.891 20.228 207.415 19.612C206.939 18.996 206.085 18.688 204.853 18.688C203.929 18.688 203.005 18.856 202.081 19.192C201.185 19.528 200.121 20.172 198.889 21.124V33.85L202.669 35.32L201.829 37H190.111V35.698L193.849 32.758V6.928L190.111 4.324V3.022L197.293 0.333999H198.889V19.15L204.643 14.614C205.231 14.39 206.001 14.278 206.953 14.278C208.857 14.278 210.369 14.866 211.489 16.042C212.609 17.19 213.169 18.758 213.169 20.746V33.85L216.949 35.32L216.109 37ZM233.842 32.464C233.842 31.68 233.408 30.966 232.54 30.322C231.672 29.65 230.342 28.852 228.55 27.928C227.094 27.172 225.918 26.514 225.022 25.954C224.126 25.394 223.356 24.75 222.712 24.022C222.096 23.266 221.788 22.454 221.788 21.586C221.788 20.578 222.208 19.5 223.048 18.352C223.888 17.204 224.924 16.238 226.156 15.454C227.388 14.67 228.536 14.278 229.6 14.278C230.888 14.278 232.372 14.446 234.052 14.782C235.76 15.09 236.992 15.44 237.748 15.832V22.3H236.152C235.256 20.564 234.22 19.22 233.044 18.268C231.868 17.288 230.664 16.798 229.432 16.798C228.564 16.798 227.864 17.036 227.332 17.512C226.8 17.96 226.534 18.534 226.534 19.234C226.534 20.102 226.982 20.886 227.878 21.586C228.802 22.258 230.188 23.056 232.036 23.98C233.464 24.708 234.612 25.338 235.48 25.87C236.348 26.402 237.076 27.032 237.664 27.76C238.28 28.46 238.588 29.244 238.588 30.112C238.588 31.148 238.14 32.24 237.244 33.388C236.376 34.508 235.298 35.46 234.01 36.244C232.75 37.028 231.588 37.42 230.524 37.42C229.152 37.42 227.514 37.266 225.61 36.958C223.734 36.622 222.39 36.258 221.578 35.866V29.398H223.174C224.154 31.134 225.316 32.492 226.66 33.472C228.004 34.424 229.362 34.9 230.734 34.9C231.658 34.9 232.4 34.662 232.96 34.186C233.548 33.71 233.842 33.136 233.842 32.464ZM255.749 37.084C255.105 37.308 254.321 37.42 253.397 37.42C251.073 37.42 249.365 36.818 248.273 35.614C247.209 34.382 246.677 32.492 246.677 29.944V17.68H242.141V15.958L250.121 6.676H251.717V15.958H259.277V17.68H251.717V30.448C251.717 32.716 252.809 33.85 254.993 33.85C255.581 33.85 256.141 33.724 256.673 33.472C257.233 33.22 257.919 32.772 258.731 32.128L259.991 33.724L255.749 37.084ZM287.671 37H279.691V32.632L274.357 37.084C273.769 37.308 272.999 37.42 272.047 37.42C270.143 37.42 268.631 36.846 267.511 35.698C266.391 34.522 265.831 32.94 265.831 30.952V20.914L262.093 18.73V17.428L269.275 13.9H270.871V28.852C270.871 30.392 271.109 31.47 271.585 32.086C272.061 32.702 272.915 33.01 274.147 33.01C275.015 33.01 275.869 32.856 276.709 32.548C277.549 32.212 278.543 31.568 279.691 30.616V20.914L275.953 18.73V17.428L283.135 13.9H284.731V33.85L288.511 35.32L287.671 37ZM331.78 37H323.8V22.846C323.8 21.306 323.562 20.228 323.086 19.612C322.61 18.996 321.756 18.688 320.524 18.688C319.656 18.688 318.802 18.856 317.962 19.192C317.122 19.5 316.128 20.13 314.98 21.082V33.85L318.76 35.32L317.92 37H309.94V22.846C309.94 21.306 309.702 20.228 309.226 19.612C308.75 18.996 307.896 18.688 306.664 18.688C305.796 18.688 304.942 18.856 304.102 19.192C303.262 19.5 302.268 20.13 301.12 21.082V33.85L304.9 35.32L304.06 37H292.342V35.698L296.08 32.758V20.872L292.342 18.688V17.386L299.524 13.858L300.868 19.234L306.454 14.572C307.042 14.348 307.812 14.236 308.764 14.236C310.388 14.236 311.732 14.684 312.796 15.58C313.86 16.448 314.532 17.652 314.812 19.192L320.272 14.614C320.86 14.39 321.63 14.278 322.582 14.278C324.486 14.278 325.998 14.866 327.118 16.042C328.238 17.19 328.798 18.758 328.798 20.746V33.85L332.62 35.32L331.78 37ZM2.1 77V48.3H4.56V63.47L17.844 48.3H21.001L4.56 66.996V77H2.1ZM18.418 77L9.234 61.338L10.956 59.411L21.616 77H18.418ZM49.2417 77.492C47.0277 77.492 45.128 77.0957 43.5427 76.303C41.9847 75.5103 40.7 74.4307 39.6887 73.064C38.6773 71.67 37.9393 70.0847 37.4747 68.308C37.01 66.5313 36.7777 64.659 36.7777 62.691C36.7777 60.6957 37.01 58.8097 37.4747 57.033C37.9393 55.229 38.6773 53.6437 39.6887 52.277C40.7 50.883 41.9847 49.7897 43.5427 48.997C45.128 48.2043 47.0277 47.808 49.2417 47.808C51.4557 47.808 53.3417 48.2043 54.8997 48.997C56.485 49.7897 57.7833 50.883 58.7947 52.277C59.806 53.6437 60.544 55.229 61.0087 57.033C61.4733 58.8097 61.7057 60.6957 61.7057 62.691C61.7057 64.659 61.4733 66.5313 61.0087 68.308C60.544 70.0847 59.806 71.67 58.7947 73.064C57.7833 74.4307 56.485 75.5103 54.8997 76.303C53.3417 77.0957 51.4557 77.492 49.2417 77.492ZM49.2417 75.196C51.2643 75.196 53.0137 74.7177 54.4897 73.761C55.9657 72.777 57.1137 71.3557 57.9337 69.497C58.7537 67.611 59.1637 65.3423 59.1637 62.691C59.1637 60.067 58.7537 57.8257 57.9337 55.967C57.1137 54.081 55.9657 52.6323 54.4897 51.621C53.0137 50.6097 51.2643 50.104 49.2417 50.104C47.2463 50.104 45.497 50.6097 43.9937 51.621C42.5177 52.6323 41.3697 54.081 40.5497 55.967C39.7297 57.8257 39.3197 60.067 39.3197 62.691C39.3197 65.3423 39.7297 67.611 40.5497 69.497C41.3697 71.3557 42.5177 72.777 43.9937 73.761C45.497 74.7177 47.2463 75.196 49.2417 75.196ZM52.3987 44.856C51.8793 44.856 51.4147 44.6647 51.0047 44.282C50.622 43.8993 50.4307 43.4483 50.4307 42.929C50.4307 42.3823 50.622 41.9177 51.0047 41.535C51.4147 41.1523 51.8793 40.961 52.3987 40.961C52.918 40.961 53.3553 41.1523 53.7107 41.535C54.0933 41.9177 54.2847 42.3823 54.2847 42.929C54.2847 43.4483 54.0933 43.8993 53.7107 44.282C53.3553 44.6647 52.918 44.856 52.3987 44.856ZM46.2897 44.856C45.7703 44.856 45.3057 44.6647 44.8957 44.282C44.513 43.8993 44.3217 43.4483 44.3217 42.929C44.3217 42.3823 44.513 41.9177 44.8957 41.535C45.3057 41.1523 45.7703 40.961 46.2897 40.961C46.809 40.961 47.2463 41.1523 47.6017 41.535C47.9843 41.9177 48.1757 42.3823 48.1757 42.929C48.1757 43.4483 47.9843 43.8993 47.6017 44.282C47.2463 44.6647 46.809 44.856 46.2897 44.856ZM80.2511 77V48.3H82.8751V74.704H97.1021V77H80.2511ZM113.924 77V48.3H117.04L132.456 75.196H131.185V48.3H133.645V77H130.57L115.113 50.104H116.384V77H113.924ZM160.651 75.073V54.573H162.947V75.073H160.651ZM152.082 65.848V63.798H171.475V65.848H152.082ZM189.915 77V48.259H198.894C200.698 48.259 202.229 48.5323 203.486 49.079C204.771 49.5983 205.755 50.391 206.438 51.457C207.122 52.523 207.463 53.8487 207.463 55.434C207.463 57.238 207.053 58.6867 206.233 59.78C205.441 60.8733 204.443 61.625 203.24 62.035C205.181 62.4723 206.63 63.2513 207.586 64.372C208.57 65.4927 209.062 66.9413 209.062 68.718C209.062 71.3693 208.256 73.4193 206.643 74.868C205.058 76.2893 202.625 77 199.345 77H189.915ZM192.375 74.704H199.755C202.024 74.704 203.719 74.1163 204.839 72.941C205.96 71.7657 206.52 70.358 206.52 68.718C206.52 67.1873 205.96 65.93 204.839 64.946C203.719 63.962 202.147 63.47 200.124 63.47C200.124 63.47 199.865 63.47 199.345 63.47C198.826 63.47 198.184 63.47 197.418 63.47C196.653 63.47 195.874 63.47 195.081 63.47C194.316 63.47 193.674 63.47 193.154 63.47C192.635 63.47 192.375 63.47 192.375 63.47V74.704ZM192.375 61.174H198.73C200.726 61.174 202.256 60.6683 203.322 59.657C204.388 58.6183 204.921 57.2243 204.921 55.475C204.921 54.0263 204.429 52.851 203.445 51.949C202.461 51.0197 200.876 50.555 198.689 50.555C198.689 50.555 198.471 50.555 198.033 50.555C197.623 50.555 197.104 50.555 196.475 50.555C195.847 50.555 195.218 50.555 194.589 50.555C193.961 50.555 193.428 50.555 192.99 50.555C192.58 50.555 192.375 50.555 192.375 50.555V61.174ZM238.538 77.492C236.324 77.492 234.425 77.0957 232.839 76.303C231.281 75.5103 229.997 74.4307 228.985 73.064C227.974 71.67 227.236 70.0847 226.771 68.308C226.307 66.5313 226.074 64.659 226.074 62.691C226.074 60.6957 226.307 58.8097 226.771 57.033C227.236 55.229 227.974 53.6437 228.985 52.277C229.997 50.883 231.281 49.7897 232.839 48.997C234.425 48.2043 236.324 47.808 238.538 47.808C240.752 47.808 242.638 48.2043 244.196 48.997C245.782 49.7897 247.08 50.883 248.091 52.277C249.103 53.6437 249.841 55.229 250.305 57.033C250.77 58.8097 251.002 60.6957 251.002 62.691C251.002 64.659 250.77 66.5313 250.305 68.308C249.841 70.0847 249.103 71.67 248.091 73.064C247.08 74.4307 245.782 75.5103 244.196 76.303C242.638 77.0957 240.752 77.492 238.538 77.492ZM238.538 75.196C240.561 75.196 242.31 74.7177 243.786 73.761C245.262 72.777 246.41 71.3557 247.23 69.497C248.05 67.611 248.46 65.3423 248.46 62.691C248.46 60.067 248.05 57.8257 247.23 55.967C246.41 54.081 245.262 52.6323 243.786 51.621C242.31 50.6097 240.561 50.104 238.538 50.104C236.543 50.104 234.794 50.6097 233.29 51.621C231.814 52.6323 230.666 54.081 229.846 55.967C229.026 57.8257 228.616 60.067 228.616 62.691C228.616 65.3423 229.026 67.611 229.846 69.497C230.666 71.3557 231.814 72.777 233.29 73.761C234.794 74.7177 236.543 75.196 238.538 75.196ZM269.63 77V48.3H272.746L288.162 75.196H286.891V48.3H289.351V77H286.276L270.819 50.104H272.09V77H269.63ZM309.427 77V48.3H312.543L327.959 75.196H326.688V48.3H329.148V77H326.073L310.616 50.104H311.887V77H309.427Z" fill="#251070"/>
</svg>
